<svg width="154" height="24" viewBox="0 0 154 24" fill="none" xmlns="http://www.w3.org/2000/svg">
    <path
        d="M0.00873468 10.8542C0.380988 -2.03101 21.2424 -5.12278 24 10.8542C22.5914 11.5618 21.9818 11.8521 21.9818 11.8521C21.9818 11.8521 22.6925 12.2738 23.996 13.073C22.9061 26.4795 2.40417 28.7541 0 13.091C1.3308 12.2407 1.969 11.8585 1.969 11.8585C1.969 11.8585 1.21284 11.479 0.00873468 10.8542Z"
        fill="#B7B5B1" />
    <path
        d="M23.0266 10.2363C19.2882 -3.96063 2.15498 -0.119802 0.981409 10.2363C3.35866 11.5739 3.89808 11.8883 3.89808 11.8883C3.89808 11.8883 2.97931 12.4757 0.973314 13.7499C3.52363 27.3981 22.0098 24.7752 23.0229 13.7332C21.1573 12.5638 20.0567 11.8824 20.0567 11.8824C20.0567 11.8824 22.5722 10.4764 23.0266 10.2363ZM13.7353 16.4509L11.7787 13.0876L9.78724 16.4509L8.28502 16.3479L11.1148 11.5774L8.56453 7.45917L10.1017 7.32175L11.9184 10.3762L13.7353 7.4591L15.1677 7.4934L12.7918 11.543L15.412 16.4164L13.7353 16.4509Z"
        fill="#244B81" />
    <path
        d="M86.128 24C84.3573 24 82.7253 23.7025 81.232 23.1074C79.76 22.5124 78.48 21.6749 77.392 20.595C76.3253 19.4931 75.4933 18.2149 74.896 16.7603C74.2987 15.3058 74 13.719 74 12C74 10.281 74.2987 8.69421 74.896 7.23967C75.4933 5.76309 76.3253 4.48485 77.392 3.40496C78.48 2.32507 79.76 1.4876 81.232 0.892562C82.7253 0.297521 84.3573 0 86.128 0C87.8987 0 89.52 0.297521 90.992 0.892562C92.4853 1.4876 93.7653 2.32507 94.832 3.40496C95.92 4.48485 96.7627 5.76309 97.36 7.23967C97.9573 8.69421 98.256 10.281 98.256 12C98.256 13.719 97.9573 15.3058 97.36 16.7603C96.7627 18.2149 95.92 19.4931 94.832 20.595C93.7653 21.6749 92.4853 22.5124 90.992 23.1074C89.52 23.7025 87.8987 24 86.128 24ZM86.128 18.2479C86.9173 18.2479 87.632 18.0937 88.272 17.7851C88.912 17.4545 89.456 17.0028 89.904 16.4298C90.352 15.8567 90.6933 15.1956 90.928 14.4463C91.1627 13.6749 91.28 12.8595 91.28 12C91.28 11.1405 91.1627 10.3361 90.928 9.58678C90.6933 8.81543 90.352 8.14325 89.904 7.57025C89.456 6.99724 88.912 6.55647 88.272 6.24793C87.632 5.91736 86.9173 5.75207 86.128 5.75207C85.3387 5.75207 84.624 5.91736 83.984 6.24793C83.344 6.55647 82.8 6.99724 82.352 7.57025C81.904 8.14325 81.5627 8.81543 81.328 9.58678C81.0933 10.3361 80.976 11.1405 80.976 12C80.976 12.8595 81.0933 13.6749 81.328 14.4463C81.5627 15.1956 81.904 15.8567 82.352 16.4298C82.8 17.0028 83.344 17.4545 83.984 17.7851C84.624 18.0937 85.3387 18.2479 86.128 18.2479Z"
        fill="#0088CC" />
    <path
        d="M102 24V7.33714C102 5.94286 102.32 4.69714 102.96 3.6C103.6 2.48 104.475 1.6 105.584 0.96C106.715 0.32 107.995 0 109.424 0H118.288V5.79429H110.48C110.032 5.79429 109.659 5.95429 109.36 6.27429C109.061 6.59429 108.912 6.99429 108.912 7.47429V10.1143H117.264V15.7714H108.912V24H102Z"
        fill="#0088CC" />
    <path d="M122 24V0H130V24H122Z" fill="#0088CC" />
    <path
        d="M144.016 0C142.053 0 140.315 0.389565 138.8 1.1687C137.307 1.97009 136.133 3.10539 135.28 4.57461C134.427 6.04383 134 7.78017 134 9.78365V24H140.784V9.48313C140.784 8.77078 140.912 8.12522 141.168 7.54643C141.445 6.98991 141.819 6.55583 142.288 6.24417C142.779 5.93252 143.344 5.7767 143.984 5.7767C144.645 5.7767 145.211 5.93252 145.68 6.24417C146.149 6.55583 146.512 6.98991 146.768 7.54643C147.045 8.12522 147.184 8.77078 147.184 9.48313V24H153.968V9.78365C153.968 7.78017 153.541 6.04383 152.688 4.57461C151.835 3.10539 150.661 1.97009 149.168 1.1687C147.675 0.389565 145.957 0 144.016 0Z"
        fill="#0088CC" />
    <path
        d="M50 24L57.168 3.39972C57.5733 2.2777 58.2347 1.43619 59.152 0.875176C60.0907 0.291725 61.1467 0 62.32 0C63.4933 0 64.5387 0.280505 65.456 0.841516C66.3947 1.40253 67.0667 2.24404 67.472 3.36606L74.64 24H67.312L66.096 19.8934H58.448L57.168 24H50ZM59.888 14.3394H64.656L62.576 6.76578C62.5547 6.69846 62.5227 6.65358 62.48 6.63114C62.4373 6.58626 62.384 6.56382 62.32 6.56382C62.2773 6.56382 62.2347 6.58626 62.192 6.63114C62.1493 6.65358 62.1173 6.69846 62.096 6.76578L59.888 14.3394Z"
        fill="#0088CC" />
    <path
        d="M28 24V0H37.504C39.8507 0 41.888 0.514286 43.616 1.54286C45.344 2.57143 46.6773 3.98857 47.616 5.79429C48.576 7.6 49.056 9.66857 49.056 12C49.056 14.3314 48.576 16.4 47.616 18.2057C46.6773 20.0114 45.344 21.4286 43.616 22.4571C41.888 23.4857 39.8507 24 37.504 24H28ZM34.912 18.2057H37.12C38.08 18.2057 38.9333 17.9657 39.68 17.4857C40.4267 16.9829 41.0133 16.2629 41.44 15.3257C41.8667 14.3886 42.08 13.28 42.08 12C42.08 10.72 41.8667 9.62286 41.44 8.70857C41.0133 7.77143 40.4267 7.05143 39.68 6.54857C38.9333 6.04571 38.08 5.79429 37.12 5.79429H34.912V18.2057Z"
        fill="#0088CC" />
</svg>